<svg width="62" height="70" viewBox="0 0 62 70" fill="none" xmlns="http://www.w3.org/2000/svg">
<path fill-rule="evenodd" clip-rule="evenodd" d="M59.9999 51.7143V22.7143L39.2856 2H18.5714C16.3739 2 14.2663 2.87296 12.7125 4.42683C11.1586 5.9807 10.2856 8.08821 10.2856 10.2857V51.7143C10.2856 53.9118 11.1586 56.0193 12.7125 57.5732C14.2663 59.127 16.3739 60 18.5714 60H51.7142C53.9117 60 56.0192 59.127 57.5731 57.5732C59.127 56.0193 59.9999 53.9118 59.9999 51.7143Z" stroke="#C9C9C9" stroke-width="3" stroke-linecap="round" stroke-linejoin="round"/>
<path d="M39.2857 2V14.4286C39.2857 16.6261 40.1587 18.7336 41.7125 20.2875C43.2664 21.8413 45.3739 22.7143 47.5714 22.7143H60M10.2857 10.2857C8.08821 10.2857 5.9807 11.1587 4.42683 12.7125C2.87296 14.2664 2 16.3739 2 18.5714V60C2 62.1975 2.87296 64.305 4.42683 65.8589C5.9807 67.4128 8.08821 68.2857 10.2857 68.2857H43.4286C45.6261 68.2857 47.7336 67.4128 49.2875 65.8589C50.8413 64.305 51.7143 62.1975 51.7143 60" stroke="#C9C9C9" stroke-width="3" stroke-linecap="round" stroke-linejoin="round"/>
</svg>
