<svg width="14" height="14" viewBox="0 0 14 14" fill="none" xmlns="http://www.w3.org/2000/svg">
<path d="M7.75 0.25C7.94116 0.250212 8.12502 0.323409 8.26403 0.454636C8.40303 0.585863 8.48668 0.765215 8.49788 0.956046C8.50908 1.14688 8.44699 1.33478 8.3243 1.48137C8.20161 1.62796 8.02757 1.72217 7.83775 1.74475L7.75 1.75H1.75V12.25H12.25V6.25C12.2502 6.05884 12.3234 5.87498 12.4546 5.73597C12.5859 5.59697 12.7652 5.51332 12.956 5.50212C13.1469 5.49092 13.3348 5.55301 13.4814 5.6757C13.628 5.79839 13.7222 5.97243 13.7448 6.16225L13.75 6.25V12.25C13.7501 12.6284 13.6072 12.9929 13.3499 13.2704C13.0926 13.5479 12.7399 13.7179 12.3625 13.7463L12.25 13.75H1.75C1.37157 13.7501 1.00708 13.6072 0.729589 13.3499C0.452103 13.0926 0.282133 12.7399 0.25375 12.3625L0.25 12.25V1.75C0.24988 1.37157 0.392805 1.00708 0.650123 0.729589C0.907441 0.452103 1.26013 0.282132 1.6375 0.25375L1.75 0.25H7.75ZM12.4323 0.50725C12.5672 0.372739 12.7483 0.294645 12.9388 0.288829C13.1293 0.283013 13.3148 0.349911 13.4577 0.475937C13.6006 0.601962 13.6902 0.777664 13.7083 0.967356C13.7264 1.15705 13.6716 1.34651 13.555 1.49725L13.4928 1.5685L6.06775 8.99275C5.93278 9.12726 5.75167 9.20535 5.56121 9.21117C5.37075 9.21699 5.18522 9.15009 5.04229 9.02406C4.89937 8.89804 4.80977 8.72234 4.7917 8.53264C4.77363 8.34295 4.82844 8.15349 4.945 8.00275L5.00725 7.93225L12.4323 0.50725Z" fill="#4C4D4F"/>
</svg>
